<svg xmlns="http://www.w3.org/2000/svg" xmlns:xlink="http://www.w3.org/1999/xlink" width="200" zoomAndPan="magnify" viewBox="0 0 150 74.999997" height="100" preserveAspectRatio="xMidYMid meet" version="1.0"><defs><g/><clipPath id="9e8def36b3"><path d="M 51 30 L 110 30 L 110 40 L 51 40 Z M 51 30 " clip-rule="nonzero"/></clipPath><clipPath id="3d25943d8d"><path d="M 51.351562 29.785156 L 108.972656 25.929688 L 109.773438 37.902344 L 52.152344 41.757812 Z M 51.351562 29.785156 " clip-rule="nonzero"/></clipPath><clipPath id="25d6760c7f"><path d="M 52.152344 41.722656 L 109.773438 37.867188 L 108.96875 25.894531 L 51.347656 29.75 Z M 52.152344 41.722656 " clip-rule="nonzero"/></clipPath></defs><g fill="#ffde59" fill-opacity="1"><g transform="translate(40.595509, 49.368175)"><g><path d="M 14.703125 -5.1875 C 14.835938 -5.21875 14.976562 -5.226562 15.125 -5.21875 C 15.28125 -5.21875 15.425781 -5.175781 15.5625 -5.09375 C 15.582031 -5.070312 15.601562 -5.03125 15.625 -4.96875 C 15.644531 -4.914062 15.664062 -4.863281 15.6875 -4.8125 C 15.6875 -4.78125 15.671875 -4.75 15.640625 -4.71875 C 15.609375 -4.6875 15.582031 -4.65625 15.5625 -4.625 C 15.5 -4.59375 15.4375 -4.566406 15.375 -4.546875 C 14.53125 -4.390625 13.75 -4.113281 13.03125 -3.71875 C 12.320312 -3.320312 11.644531 -2.867188 11 -2.359375 C 10.125 -1.671875 9.316406 -0.914062 8.578125 -0.09375 C 7.835938 0.71875 7.140625 1.570312 6.484375 2.46875 C 5.234375 4.132812 4.070312 5.875 3 7.6875 C 2.75 8.101562 2.492188 8.507812 2.234375 8.90625 C 2.203125 8.976562 2.160156 9.046875 2.109375 9.109375 C 1.992188 9.304688 1.863281 9.488281 1.71875 9.65625 C 1.34375 10.050781 0.90625 10.148438 0.40625 9.953125 C 0.195312 9.847656 0.078125 9.707031 0.046875 9.53125 C 0.015625 9.351562 0.0195312 9.171875 0.0625 8.984375 C 0.34375 6.441406 0.507812 3.898438 0.5625 1.359375 C 0.664062 -2.046875 0.734375 -5.445312 0.765625 -8.84375 C 0.796875 -12.25 0.738281 -15.65625 0.59375 -19.0625 C 0.507812 -21.09375 0.394531 -23.132812 0.25 -25.1875 C 0.1875 -26.125 0.125 -27.066406 0.0625 -28.015625 C 0.0625 -28.085938 0.0507812 -28.15625 0.03125 -28.21875 C 0.0195312 -28.414062 0.015625 -28.609375 0.015625 -28.796875 C 0.046875 -29.097656 0.210938 -29.265625 0.515625 -29.296875 C 0.703125 -29.328125 0.863281 -29.3125 1 -29.25 C 1.144531 -29.1875 1.226562 -29.085938 1.25 -28.953125 C 1.375 -28.472656 1.460938 -27.992188 1.515625 -27.515625 C 1.515625 -27.367188 1.519531 -27.222656 1.53125 -27.078125 C 1.71875 -24.421875 1.882812 -21.765625 2.03125 -19.109375 C 2.164062 -16.484375 2.226562 -13.851562 2.21875 -11.21875 C 2.21875 -8.582031 2.1875 -5.941406 2.125 -3.296875 C 2.082031 -1.128906 2.023438 1.035156 1.953125 3.203125 C 1.941406 3.703125 1.914062 4.203125 1.875 4.703125 C 1.851562 4.992188 1.832031 5.28125 1.8125 5.5625 C 1.800781 5.800781 1.789062 6.050781 1.78125 6.3125 C 1.78125 6.425781 1.773438 6.539062 1.765625 6.65625 C 1.796875 6.675781 1.828125 6.691406 1.859375 6.703125 C 1.898438 6.703125 1.9375 6.707031 1.96875 6.71875 C 2.03125 6.613281 2.09375 6.515625 2.15625 6.421875 C 2.332031 6.148438 2.507812 5.878906 2.6875 5.609375 C 3.882812 3.703125 5.207031 1.894531 6.65625 0.1875 C 7.382812 -0.675781 8.164062 -1.476562 9 -2.21875 C 9.832031 -2.96875 10.742188 -3.625 11.734375 -4.1875 C 12.203125 -4.445312 12.675781 -4.664062 13.15625 -4.84375 C 13.644531 -5.019531 14.160156 -5.132812 14.703125 -5.1875 Z M 14.703125 -5.1875 "/></g></g></g><g fill="#ffde59" fill-opacity="1"><g transform="translate(54.826973, 49.368175)"><g><path d="M 4.5625 -3.5625 C 4.382812 -3.1875 4.078125 -2.769531 3.640625 -2.3125 C 3.203125 -1.863281 2.703125 -1.578125 2.140625 -1.453125 C 1.585938 -1.328125 1.0625 -1.515625 0.5625 -2.015625 C 0.363281 -2.242188 0.21875 -2.5 0.125 -2.78125 C 0.0390625 -3.070312 0.0078125 -3.359375 0.03125 -3.640625 C 0.03125 -3.722656 0.03125 -3.820312 0.03125 -3.9375 C 0.03125 -4.238281 0.0390625 -4.582031 0.0625 -4.96875 C 0.09375 -5.363281 0.15625 -5.71875 0.25 -6.03125 C 0.34375 -6.351562 0.484375 -6.546875 0.671875 -6.609375 C 1.234375 -6.753906 1.535156 -6.5625 1.578125 -6.03125 C 1.578125 -5.863281 1.570312 -5.691406 1.5625 -5.515625 C 1.550781 -5.429688 1.546875 -5.351562 1.546875 -5.28125 C 1.535156 -5.03125 1.523438 -4.78125 1.515625 -4.53125 C 1.515625 -4.34375 1.503906 -4.148438 1.484375 -3.953125 C 1.472656 -3.109375 1.660156 -2.601562 2.046875 -2.4375 C 2.441406 -2.28125 2.890625 -2.453125 3.390625 -2.953125 C 3.898438 -3.453125 4.234375 -3.867188 4.390625 -4.203125 C 4.546875 -4.546875 4.65625 -4.617188 4.71875 -4.421875 C 4.789062 -4.222656 4.738281 -3.9375 4.5625 -3.5625 Z M 1.46875 -8.421875 C 1.394531 -8.359375 1.300781 -8.316406 1.1875 -8.296875 C 1.082031 -8.273438 0.988281 -8.285156 0.90625 -8.328125 C 0.84375 -8.378906 0.800781 -8.445312 0.78125 -8.53125 C 0.757812 -8.613281 0.75 -8.710938 0.75 -8.828125 C 0.75 -8.859375 0.757812 -8.882812 0.78125 -8.90625 C 0.789062 -9.007812 0.816406 -9.113281 0.859375 -9.21875 C 0.972656 -9.5 1.210938 -9.628906 1.578125 -9.609375 C 1.710938 -9.585938 1.816406 -9.53125 1.890625 -9.4375 C 1.960938 -9.351562 1.976562 -9.253906 1.9375 -9.140625 C 1.84375 -8.847656 1.6875 -8.609375 1.46875 -8.421875 Z M 1.46875 -8.421875 "/></g></g></g><g fill="#ffde59" fill-opacity="1"><g transform="translate(59.143002, 49.368175)"><g><path d="M 7.265625 -3.375 C 7.722656 -4.09375 7.992188 -4.546875 8.078125 -4.734375 C 8.160156 -4.929688 8.222656 -4.925781 8.265625 -4.71875 C 8.316406 -4.507812 8.171875 -4.035156 7.828125 -3.296875 C 7.492188 -2.554688 7.070312 -1.984375 6.5625 -1.578125 C 6.0625 -1.171875 5.59375 -1.019531 5.15625 -1.125 C 4.726562 -1.238281 4.421875 -1.546875 4.234375 -2.046875 C 4.046875 -2.546875 3.988281 -3.175781 4.0625 -3.9375 C 4.0625 -3.945312 4.066406 -3.976562 4.078125 -4.03125 C 4.085938 -4.164062 4.109375 -4.359375 4.140625 -4.609375 C 4.171875 -4.859375 4.191406 -5.117188 4.203125 -5.390625 C 4.222656 -5.660156 4.21875 -5.878906 4.1875 -6.046875 C 4.15625 -6.222656 4.078125 -6.285156 3.953125 -6.234375 C 3.640625 -6.066406 3.332031 -5.734375 3.03125 -5.234375 C 2.738281 -4.742188 2.472656 -4.226562 2.234375 -3.6875 C 1.992188 -3.144531 1.820312 -2.707031 1.71875 -2.375 C 1.675781 -2.269531 1.640625 -2.160156 1.609375 -2.046875 C 1.554688 -1.890625 1.5 -1.734375 1.4375 -1.578125 C 1.257812 -1.140625 0.960938 -0.972656 0.546875 -1.078125 C 0.304688 -1.128906 0.164062 -1.269531 0.125 -1.5 C 0.113281 -1.6875 0.109375 -1.859375 0.109375 -2.015625 C 0.109375 -2.128906 0.101562 -2.226562 0.09375 -2.3125 C 0.0703125 -3.613281 0.0390625 -4.921875 0 -6.234375 C 0.0078125 -6.390625 0.078125 -6.492188 0.203125 -6.546875 C 0.328125 -6.609375 0.472656 -6.640625 0.640625 -6.640625 C 0.765625 -6.640625 0.882812 -6.601562 1 -6.53125 C 1.113281 -6.46875 1.1875 -6.320312 1.21875 -6.09375 C 1.226562 -6.019531 1.234375 -5.945312 1.234375 -5.875 C 1.242188 -5.832031 1.25 -5.789062 1.25 -5.75 C 1.28125 -5.570312 1.296875 -5.421875 1.296875 -5.296875 C 1.296875 -5.097656 1.304688 -4.960938 1.328125 -4.890625 C 1.359375 -4.828125 1.414062 -4.832031 1.5 -4.90625 C 1.582031 -4.976562 1.722656 -5.160156 1.921875 -5.453125 C 2.253906 -5.960938 2.664062 -6.398438 3.15625 -6.765625 C 3.601562 -7.085938 4.097656 -7.21875 4.640625 -7.15625 C 5.097656 -7.113281 5.410156 -6.875 5.578125 -6.4375 C 5.640625 -6.207031 5.671875 -5.976562 5.671875 -5.75 C 5.671875 -5.53125 5.65625 -5.304688 5.625 -5.078125 C 5.613281 -4.847656 5.597656 -4.609375 5.578125 -4.359375 C 5.554688 -4.285156 5.539062 -4.207031 5.53125 -4.125 C 5.457031 -3.289062 5.484375 -2.726562 5.609375 -2.4375 C 5.734375 -2.15625 5.925781 -2.0625 6.1875 -2.15625 C 6.457031 -2.257812 6.816406 -2.664062 7.265625 -3.375 Z M 7.265625 -3.375 "/></g></g></g><g fill="#ffde59" fill-opacity="1"><g transform="translate(66.878448, 49.368175)"><g><path d="M 8.671875 -4.234375 C 8.847656 -4.378906 8.96875 -4.445312 9.03125 -4.4375 C 9.09375 -4.4375 9.113281 -4.390625 9.09375 -4.296875 C 9.082031 -4.210938 9.035156 -4.113281 8.953125 -4 C 8.765625 -3.707031 8.519531 -3.410156 8.21875 -3.109375 C 7.914062 -2.804688 7.703125 -2.597656 7.578125 -2.484375 C 6.703125 -1.703125 5.914062 -1.273438 5.21875 -1.203125 C 4.519531 -1.140625 3.910156 -1.285156 3.390625 -1.640625 C 2.878906 -2.003906 2.460938 -2.410156 2.140625 -2.859375 C 1.828125 -3.316406 1.625 -3.675781 1.53125 -3.9375 C 1.488281 -3.863281 1.460938 -3.695312 1.453125 -3.4375 C 1.441406 -3.175781 1.4375 -2.867188 1.4375 -2.515625 C 1.425781 -2.171875 1.410156 -1.832031 1.390625 -1.5 C 1.378906 -1.164062 1.347656 -0.894531 1.296875 -0.6875 C 1.210938 -0.28125 0.960938 -0.101562 0.546875 -0.15625 C 0.242188 -0.1875 0.0703125 -0.335938 0.03125 -0.609375 C 0.0078125 -0.785156 0 -0.96875 0 -1.15625 C 0 -1.539062 0 -1.921875 0 -2.296875 C 0.0078125 -3.835938 0.03125 -5.378906 0.0625 -6.921875 C 0.0625 -7.660156 0.09375 -8.835938 0.15625 -10.453125 C 0.226562 -12.066406 0.34375 -13.769531 0.5 -15.5625 C 0.664062 -17.363281 0.882812 -18.914062 1.15625 -20.21875 C 1.257812 -20.726562 1.429688 -21.210938 1.671875 -21.671875 C 1.921875 -22.140625 2.304688 -22.4375 2.828125 -22.5625 C 3.046875 -22.601562 3.257812 -22.5625 3.46875 -22.4375 C 3.675781 -22.3125 3.867188 -22.054688 4.046875 -21.671875 C 4.210938 -21.253906 4.300781 -20.828125 4.3125 -20.390625 C 4.351562 -19.410156 4.238281 -18.171875 3.96875 -16.671875 C 3.695312 -15.179688 3.359375 -13.628906 2.953125 -12.015625 C 2.554688 -10.410156 2.175781 -8.941406 1.8125 -7.609375 C 1.613281 -6.859375 1.441406 -6.210938 1.296875 -5.671875 C 1.453125 -5.953125 1.660156 -6.269531 1.921875 -6.625 C 2.191406 -6.976562 2.445312 -7.265625 2.6875 -7.484375 C 3.269531 -7.941406 3.929688 -8.101562 4.671875 -7.96875 C 5.503906 -7.78125 5.757812 -7.304688 5.4375 -6.546875 C 5.082031 -5.878906 4.648438 -5.367188 4.140625 -5.015625 C 3.640625 -4.660156 3.148438 -4.382812 2.671875 -4.1875 C 3.171875 -3.488281 3.738281 -2.929688 4.375 -2.515625 C 4.820312 -2.265625 5.316406 -2.222656 5.859375 -2.390625 C 6.398438 -2.566406 6.921875 -2.835938 7.421875 -3.203125 C 7.929688 -3.578125 8.347656 -3.921875 8.671875 -4.234375 Z M 2.28125 -19.640625 C 2.0625 -18.179688 1.863281 -16.34375 1.6875 -14.125 C 1.519531 -11.914062 1.40625 -10.097656 1.34375 -8.671875 C 1.550781 -9.253906 1.796875 -10.226562 2.078125 -11.59375 C 2.367188 -12.957031 2.632812 -14.367188 2.875 -15.828125 C 3.125 -17.296875 3.300781 -18.476562 3.40625 -19.375 C 3.507812 -20.351562 3.492188 -20.988281 3.359375 -21.28125 C 3.222656 -21.582031 3.046875 -21.585938 2.828125 -21.296875 C 2.617188 -21.003906 2.4375 -20.453125 2.28125 -19.640625 Z M 1.65625 -4.875 C 1.707031 -4.84375 1.851562 -4.863281 2.09375 -4.9375 C 2.332031 -5.019531 2.597656 -5.128906 2.890625 -5.265625 C 3.179688 -5.410156 3.414062 -5.582031 3.59375 -5.78125 C 4.03125 -6.269531 4.226562 -6.601562 4.1875 -6.78125 C 4.144531 -6.957031 3.988281 -7.019531 3.71875 -6.96875 C 3.445312 -6.925781 3.179688 -6.789062 2.921875 -6.5625 C 2.628906 -6.28125 2.347656 -5.972656 2.078125 -5.640625 C 1.804688 -5.304688 1.664062 -5.050781 1.65625 -4.875 Z M 1.65625 -4.875 "/></g></g></g><g fill="#ffde59" fill-opacity="1"><g transform="translate(75.405018, 49.368175)"><g><path d="M 38.03125 -33.015625 C 39.75 -31.441406 40.257812 -29.539062 39.5625 -27.3125 C 39.425781 -26.925781 39.265625 -26.550781 39.078125 -26.1875 C 38.722656 -25.539062 38.3125 -24.9375 37.84375 -24.375 C 37.382812 -23.8125 36.898438 -23.269531 36.390625 -22.75 C 36.046875 -22.382812 35.640625 -22.265625 35.171875 -22.390625 C 35.046875 -22.398438 34.960938 -22.460938 34.921875 -22.578125 C 34.898438 -22.691406 34.929688 -22.789062 35.015625 -22.875 C 35.847656 -23.675781 36.582031 -24.570312 37.21875 -25.5625 C 37.675781 -26.21875 38.003906 -26.925781 38.203125 -27.6875 C 38.710938 -29.75 38.148438 -31.445312 36.515625 -32.78125 C 35.734375 -33.394531 34.867188 -33.820312 33.921875 -34.0625 C 33.015625 -34.300781 32.109375 -34.457031 31.203125 -34.53125 C 30.296875 -34.601562 29.378906 -34.609375 28.453125 -34.546875 C 27.054688 -34.460938 25.664062 -34.300781 24.28125 -34.0625 C 22.90625 -33.820312 21.535156 -33.535156 20.171875 -33.203125 C 18.390625 -32.753906 16.640625 -32.210938 14.921875 -31.578125 C 13.210938 -30.941406 11.550781 -30.179688 9.9375 -29.296875 C 8.382812 -28.460938 6.941406 -27.457031 5.609375 -26.28125 C 4.421875 -25.238281 3.445312 -24.019531 2.6875 -22.625 C 1.707031 -20.78125 1.789062 -18.976562 2.9375 -17.21875 C 3.664062 -16.164062 4.53125 -15.234375 5.53125 -14.421875 C 7.082031 -13.128906 8.722656 -11.96875 10.453125 -10.9375 C 11.910156 -10.0625 13.367188 -9.195312 14.828125 -8.34375 C 15.796875 -7.789062 16.753906 -7.226562 17.703125 -6.65625 C 18.390625 -6.257812 19.0625 -5.847656 19.71875 -5.421875 C 20.375 -5.003906 21.015625 -4.546875 21.640625 -4.046875 C 22.015625 -3.742188 22.425781 -3.671875 22.875 -3.828125 C 24.425781 -4.273438 26 -4.597656 27.59375 -4.796875 C 27.644531 -4.796875 27.695312 -4.800781 27.75 -4.8125 C 28.113281 -4.875 28.46875 -4.875 28.8125 -4.8125 C 28.894531 -4.78125 28.96875 -4.734375 29.03125 -4.671875 C 29.101562 -4.617188 29.140625 -4.535156 29.140625 -4.421875 C 29.140625 -4.304688 29.101562 -4.21875 29.03125 -4.15625 C 28.957031 -4.09375 28.878906 -4.0625 28.796875 -4.0625 C 28.234375 -4.050781 27.6875 -3.992188 27.15625 -3.890625 C 26.632812 -3.796875 26.117188 -3.679688 25.609375 -3.546875 C 25.191406 -3.441406 24.78125 -3.351562 24.375 -3.28125 C 24.320312 -3.269531 24.273438 -3.257812 24.234375 -3.25 C 24.035156 -3.21875 23.84375 -3.164062 23.65625 -3.09375 C 23.46875 -3.03125 23.304688 -2.9375 23.171875 -2.8125 C 23.265625 -2.550781 23.40625 -2.34375 23.59375 -2.1875 C 23.664062 -2.09375 23.738281 -1.992188 23.8125 -1.890625 C 24.132812 -1.460938 24.414062 -1.019531 24.65625 -0.5625 C 24.894531 -0.101562 25.078125 0.378906 25.203125 0.890625 C 25.484375 2.222656 25.046875 3.25 23.890625 3.96875 C 23.503906 4.195312 23.101562 4.390625 22.6875 4.546875 C 21.1875 5.085938 19.644531 5.316406 18.0625 5.234375 C 17.4375 5.191406 16.859375 5.035156 16.328125 4.765625 C 15.585938 4.378906 15.097656 3.835938 14.859375 3.140625 C 14.628906 2.441406 14.695312 1.71875 15.0625 0.96875 C 15.3125 0.488281 15.632812 0.078125 16.03125 -0.265625 C 16.53125 -0.710938 17.066406 -1.113281 17.640625 -1.46875 C 18.210938 -1.820312 18.804688 -2.148438 19.421875 -2.453125 C 19.671875 -2.578125 19.921875 -2.707031 20.171875 -2.84375 C 20.296875 -2.90625 20.425781 -2.96875 20.5625 -3.03125 C 20.570312 -3.175781 20.546875 -3.285156 20.484375 -3.359375 C 20.429688 -3.429688 20.363281 -3.492188 20.28125 -3.546875 C 20.25 -3.554688 20.222656 -3.578125 20.203125 -3.609375 C 19.160156 -4.410156 18.070312 -5.140625 16.9375 -5.796875 C 15.5625 -6.609375 14.175781 -7.410156 12.78125 -8.203125 C 12.195312 -8.535156 11.617188 -8.878906 11.046875 -9.234375 C 9.035156 -10.398438 7.097656 -11.675781 5.234375 -13.0625 C 4.085938 -13.914062 3.050781 -14.882812 2.125 -15.96875 C 1.675781 -16.519531 1.296875 -17.117188 0.984375 -17.765625 C 0.328125 -19.140625 0.265625 -20.554688 0.796875 -22.015625 C 1.066406 -22.765625 1.425781 -23.457031 1.875 -24.09375 C 2.320312 -24.726562 2.816406 -25.332031 3.359375 -25.90625 C 4.578125 -27.15625 5.921875 -28.222656 7.390625 -29.109375 C 9.828125 -30.609375 12.394531 -31.8125 15.09375 -32.71875 C 18.476562 -33.84375 21.9375 -34.644531 25.46875 -35.125 C 26.6875 -35.289062 27.910156 -35.390625 29.140625 -35.421875 C 30.378906 -35.453125 31.613281 -35.375 32.84375 -35.1875 C 33.570312 -35.082031 34.28125 -34.925781 34.96875 -34.71875 C 35.65625 -34.507812 36.316406 -34.210938 36.953125 -33.828125 C 37.335938 -33.578125 37.695312 -33.304688 38.03125 -33.015625 Z M 21.890625 -2.046875 C 21.679688 -2.253906 21.441406 -2.285156 21.171875 -2.140625 C 20.484375 -1.828125 19.820312 -1.476562 19.1875 -1.09375 C 18.550781 -0.71875 17.945312 -0.289062 17.375 0.1875 C 17.0625 0.457031 16.800781 0.769531 16.59375 1.125 C 16.207031 1.863281 16.164062 2.546875 16.46875 3.171875 C 16.769531 3.804688 17.328125 4.195312 18.140625 4.34375 C 18.335938 4.363281 18.507812 4.378906 18.65625 4.390625 C 18.707031 4.390625 18.753906 4.390625 18.796875 4.390625 C 20.035156 4.359375 21.160156 4.109375 22.171875 3.640625 C 23.441406 3.097656 23.90625 2.160156 23.5625 0.828125 C 23.40625 0.285156 23.179688 -0.21875 22.890625 -0.6875 C 22.609375 -1.164062 22.273438 -1.617188 21.890625 -2.046875 Z M 21.890625 -2.046875 "/></g></g></g><g clip-path="url(#9e8def36b3)"><g clip-path="url(#3d25943d8d)"><g clip-path="url(#25d6760c7f)"><path fill="#ffde59" d="M 52.53125 34.367188 C 52.390625 34.21875 52.15625 34.210938 52.007812 34.351562 C 51.859375 34.488281 51.851562 34.722656 51.992188 34.875 C 52.859375 35.804688 53.628906 36.515625 54.449219 37.082031 L 54.472656 37.097656 C 55.285156 37.660156 56.144531 38.078125 57.191406 38.414062 C 63.890625 40.578125 72.734375 37.667969 81.351562 34.832031 C 93.339844 30.890625 104.886719 27.09375 109.109375 37.605469 C 109.1875 37.796875 109.402344 37.890625 109.589844 37.8125 C 109.78125 37.738281 109.875 37.519531 109.796875 37.332031 C 105.316406 26.175781 93.445312 30.078125 81.125 34.132812 C 72.613281 36.929688 63.886719 39.804688 57.414062 37.710938 C 56.441406 37.398438 55.644531 37.011719 54.890625 36.492188 L 54.867188 36.476562 C 54.101562 35.945312 53.371094 35.265625 52.53125 34.367188 Z M 52.53125 34.367188 " fill-opacity="1" fill-rule="evenodd"/></g></g></g></svg>